#N canvas 198 56 633 612 12;
#X declare -path pulqui;
#X obj 98 85 noise~;
#X obj 146 543 dac~;
#X obj 270 287 pqcrossover~ 1000;
#X obj 107 207 *~ 1;
#X obj 262 166 == 1;
#X obj 99 120 *~ 0.5;
#X msg 314 226 freq \$1;
#X floatatom 315 187 5 0 0 0 - - - 0;
#X obj 27 22 cnv 10 300 6 empty empty pqcrossover~ 0 0 0 28 #dfdfdf #404040 0;
#X text 98 34 4th order Linkwitz-Riley filters;
#X obj 507 240 hradio 19 1 0 3 empty empty empty 0 -10 0 12 #fcfcfc #000000 #000000 0;
#X obj 262 377 *~ 1;
#X obj 195 206 *~ 0;
#X obj 282 120 hradio 19 1 0 2 empty empty empty 0 -10 0 12 #fcfcfc #000000 #000000 0;
#X obj 503 331 == 1;
#X obj 458 331 == 0;
#X obj 543 332 == 2;
#X obj 322 376 *~ 0;
#X obj 386 376 *~ 0;
#X obj 217 166 == 0;
#X text 326 121 crossover;
#X text 235 120 orig;
#X text 494 212 lp lp+hp hp;
#X obj 264 434 *~ 1;
#N canvas 581 62 450 300 reference 0;
#X text 90 64 inlet:;
#X text 104 82 freq <float>: crossover frequency;
#X text 112 258 <float>: crossover frequency;
#X text 89 232 creation args:;
#X text 105 103 <signal>: input;
#X text 123 15 --- pqcrossover~ reference ---;
#X text 88 127 outlet1:;
#X text 107 151 <signal> low pass filtered output;
#X text 87 177 outlet2:;
#X text 109 203 <signal> high pass filtered output;
#X restore 432 463 pd reference;
#X obj 433 543 declare -path pulqui;
#X text 431 508 use this in your patch to use the object, f 22;
#X msg 494 59 \; pd dsp 1 \;;
#X obj 494 28 loadbang;
#X connect 0 0 5 0;
#X connect 2 0 11 0;
#X connect 2 0 17 0;
#X connect 2 1 18 0;
#X connect 2 1 17 0;
#X connect 3 0 1 0;
#X connect 3 0 1 1;
#X connect 4 0 12 1;
#X connect 5 0 3 0;
#X connect 5 0 12 0;
#X connect 6 0 2 0;
#X connect 7 0 6 0;
#X connect 10 0 15 0;
#X connect 10 0 14 0;
#X connect 10 0 16 0;
#X connect 11 0 23 0;
#X connect 12 0 2 0;
#X connect 13 0 4 0;
#X connect 13 0 19 0;
#X connect 14 0 17 1;
#X connect 15 0 11 1;
#X connect 16 0 18 1;
#X connect 17 0 23 0;
#X connect 18 0 23 0;
#X connect 19 0 3 1;
#X connect 23 0 1 0;
#X connect 23 0 1 1;
#X connect 28 0 27 0;
