#N canvas 380 280 586 300 12;
#X msg 171 179 info;
#X obj 273 233 block~ 64;
#X msg 272 180 set \$1 1 1;
#X obj 205 119 t b f;
#X msg 145 27 64;
#X msg 183 31 128;
#X msg 221 42 256;
#X msg 256 62 512;
#X msg 287 84 1024;
#X msg 329 101 2048;
#X obj 91 168 osc~ 229;
#X obj 170 233 pulqui~ 0;
#X msg 425 59 \; pd dsp 1;
#X obj 425 35 loadbang;
#X connect 0 0 11 0;
#X connect 2 0 1 0;
#X connect 3 0 0 0;
#X connect 3 1 2 0;
#X connect 4 0 3 0;
#X connect 5 0 3 0;
#X connect 6 0 3 0;
#X connect 7 0 3 0;
#X connect 8 0 3 0;
#X connect 9 0 3 0;
#X connect 10 0 11 0;
#X connect 13 0 12 0;
